<?xml version="1.0" standalone="no"?>
<!DOCTYPE svg PUBLIC "-//W3C//DTD SVG 20010904//EN"
 "http://www.w3.org/TR/2001/REC-SVG-20010904/DTD/svg10.dtd">
<svg version="1.0" xmlns="http://www.w3.org/2000/svg"
 width="512.000000pt" height="512.000000pt" viewBox="0 0 512.000000 512.000000"
 preserveAspectRatio="xMidYMid meet">
<metadata>
Created by potrace 1.11, written by Peter Selinger 2001-2013
</metadata>
<g transform="translate(0.000000,512.000000) scale(0.100000,-0.100000)"
fill="#000000" stroke="none">
<path d="M1754 3822 l-30 -3 -23 -162 c-13 -89 -25 -173 -27 -187 -1 -14 -5
-38 -8 -55 -3 -16 -8 -48 -11 -70 -8 -60 -17 -118 -21 -139 -2 -11 -6 -40 -9
-65 -3 -25 -7 -57 -10 -71 -2 -14 -7 -41 -9 -60 -3 -19 -14 -100 -26 -180 -12
-80 -23 -161 -26 -180 -2 -19 -6 -44 -9 -55 -2 -11 -7 -42 -10 -70 -4 -27 -11
-79 -17 -115 -5 -36 -11 -74 -12 -85 -2 -11 -6 -38 -9 -60 -4 -22 -9 -58 -12
-80 -3 -22 -7 -51 -10 -65 -4 -26 -9 -55 -30 -207 -3 -21 -7 -49 -10 -63 -2
-14 -11 -76 -20 -138 -9 -62 -18 -121 -19 -130 -2 -9 -7 -42 -11 -72 -6 -49
-14 -107 -18 -135 -1 -6 89 -11 250 -13 l253 -2 4 22 c3 13 10 58 16 101 7 43
13 88 15 100 4 30 17 118 20 142 13 94 25 180 31 210 2 10 6 35 8 55 3 19 19
130 36 245 16 116 33 228 35 250 3 22 8 51 10 65 2 14 7 45 10 70 3 25 11 74
16 110 6 36 12 79 14 95 13 94 35 228 38 231 2 2 23 -38 47 -89 24 -50 95
-198 158 -327 63 -129 134 -275 157 -325 24 -49 89 -184 145 -300 56 -115 136
-282 178 -369 42 -88 91 -187 107 -220 l30 -61 236 -3 237 -2 6 42 c4 24 9 59
12 78 3 19 11 76 19 125 8 50 17 110 20 135 3 25 15 101 25 170 10 69 22 145
25 170 3 25 8 56 10 70 2 14 7 45 10 70 12 83 16 114 36 240 11 69 22 145 25
170 3 25 9 70 14 100 5 30 12 73 15 95 7 54 45 314 50 345 2 14 7 43 9 65 3
22 7 49 10 60 3 18 8 55 22 150 4 30 41 279 50 343 l5 32 -250 0 c-137 0 -252
-3 -254 -7 -3 -5 -8 -33 -11 -63 -4 -30 -9 -66 -11 -80 -8 -42 -14 -83 -19
-125 -3 -22 -8 -49 -10 -61 -2 -12 -7 -45 -11 -75 -3 -30 -8 -61 -10 -69 -2
-8 -6 -37 -10 -65 -3 -27 -17 -122 -30 -210 -13 -88 -27 -182 -30 -210 -4 -27
-9 -59 -11 -70 -4 -19 -8 -51 -20 -137 -3 -24 -12 -83 -19 -133 -8 -49 -17
-110 -20 -135 -3 -25 -12 -81 -18 -124 l-13 -80 -38 80 c-22 43 -63 129 -91
189 -29 61 -81 169 -115 240 -59 122 -90 188 -209 438 -55 116 -129 269 -226
472 -37 77 -76 159 -86 183 -10 23 -24 42 -31 43 -51 2 -459 3 -484 1z"/>
</g>
</svg>
